<?xml version="1.0" encoding="utf-8"?>
<!-- Generator: Adobe Illustrator 18.1.0, SVG Export Plug-In . SVG Version: 6.00 Build 0)  -->
<svg version="1.1" id="Layer_1" xmlns="http://www.w3.org/2000/svg" xmlns:xlink="http://www.w3.org/1999/xlink" x="0px" y="0px"
	 viewBox="0 0 63 63" enable-background="new 0 0 63 63" xml:space="preserve">
<path fill="#1E2832" d="M4.8,17.8l6.9,4c0.7,0.4,1.6,0.2,2-0.5c0.4-0.7,0.2-1.6-0.5-2l-6.9-4c-0.7-0.4-1.6-0.2-2,0.5
	C3.8,16.5,4.1,17.4,4.8,17.8z M19.2,13.2c0.4,0.7,1.3,1,2,0.5c0.7-0.4,1-1.3,0.5-2l-4-6.9c-0.4-0.7-1.3-1-2-0.5
	c-0.7,0.4-1,1.3-0.5,2L19.2,13.2z M31.5,11c0.8,0,1.5-0.7,1.5-1.5v-8C33,0.7,32.3,0,31.5,0C30.7,0,30,0.7,30,1.5v8
	C30,10.3,30.7,11,31.5,11z M51.3,21.8l6.9-4c0.7-0.4,1-1.3,0.5-2c-0.4-0.7-1.3-1-2-0.5l-6.9,4c-0.7,0.4-1,1.3-0.5,2
	C49.7,22,50.6,22.2,51.3,21.8z M41.7,13.7c0.7,0.4,1.6,0.2,2-0.5l4-6.9c0.4-0.7,0.2-1.6-0.5-2c-0.7-0.4-1.6-0.2-2,0.5l-4,6.9
	C40.8,12.4,41,13.3,41.7,13.7z M31.5,13C21.3,13,13,21.3,13,31.5S21.3,50,31.5,50C41.7,50,50,41.7,50,31.5S41.7,13,31.5,13z
	 M31.5,47.2c-8.7,0-15.8-7.1-15.8-15.8s7.1-15.8,15.8-15.8c8.7,0,15.8,7.1,15.8,15.8S40.2,47.2,31.5,47.2z M58.2,45.2l-6.9-4
	c-0.7-0.4-1.6-0.2-2,0.5c-0.4,0.7-0.2,1.6,0.5,2l6.9,4c0.7,0.4,1.6,0.2,2-0.5C59.2,46.5,58.9,45.6,58.2,45.2z M61.5,30h-8
	c-0.8,0-1.5,0.7-1.5,1.5c0,0.8,0.7,1.5,1.5,1.5h8c0.8,0,1.5-0.7,1.5-1.5C63,30.7,62.3,30,61.5,30z M43.8,49.8c-0.4-0.7-1.3-1-2-0.5
	c-0.7,0.4-1,1.3-0.5,2l4,6.9c0.4,0.7,1.3,1,2,0.5c0.7-0.4,1-1.3,0.5-2L43.8,49.8z M21.2,49.3c-0.7-0.4-1.6-0.2-2,0.5l-4,6.9
	c-0.4,0.7-0.2,1.6,0.5,2c0.7,0.4,1.6,0.2,2-0.5l4-6.9C22.2,50.6,22,49.7,21.2,49.3z M11.7,41.2l-6.9,4c-0.7,0.4-1,1.3-0.5,2
	c0.4,0.7,1.3,1,2,0.5l6.9-4c0.7-0.4,1-1.3,0.5-2C13.3,41,12.4,40.8,11.7,41.2z M11,31.5c0-0.8-0.7-1.5-1.5-1.5h-8
	C0.7,30,0,30.7,0,31.5C0,32.3,0.7,33,1.5,33h8C10.3,33,11,32.3,11,31.5z M31.5,52c-0.8,0-1.5,0.7-1.5,1.5v8c0,0.8,0.7,1.5,1.5,1.5
	c0.8,0,1.5-0.7,1.5-1.5v-8C33,52.7,32.3,52,31.5,52z"/>
</svg>
