<?xml version="1.0" encoding="utf-8"?>
<!-- Generator: Adobe Illustrator 18.1.0, SVG Export Plug-In . SVG Version: 6.00 Build 0)  -->
<svg version="1.1" id="Layer_1" xmlns="http://www.w3.org/2000/svg" xmlns:xlink="http://www.w3.org/1999/xlink" x="0px" y="0px"
	 viewBox="0 0 64 52" enable-background="new 0 0 64 52" xml:space="preserve">
<path fill="#1E2832" d="M23.5,12.8c4.1,0,7.8,2.3,9.7,6.1c0.3,0.7,1.2,1,1.8,0.6c0.7-0.3,1-1.2,0.6-1.8c-2.3-4.7-6.9-7.6-12.1-7.6
	C16.1,10,10,16.1,10,23.5c0,5,2.7,9.5,7.1,11.9c0.2,0.1,0.4,0.2,0.6,0.2c0.5,0,1-0.3,1.2-0.7c0.4-0.7,0.1-1.5-0.6-1.9
	c-3.5-1.9-5.7-5.5-5.7-9.5C12.8,17.6,17.6,12.8,23.5,12.8z M39,16.3l4.3-2.5c0.7-0.4,1-1.3,0.5-2c-0.4-0.7-1.3-1-2-0.5l-4.3,2.5
	c-0.7,0.4-1,1.3-0.5,2C37.3,16.5,38.3,16.7,39,16.3z M31.2,10.1c0.7,0.4,1.6,0.2,2-0.5l2.5-4.3c0.4-0.7,0.2-1.6-0.5-2
	c-0.7-0.4-1.6-0.2-2,0.5L30.7,8C30.3,8.7,30.5,9.7,31.2,10.1z M13.7,9.5c0.4,0.7,1.3,1,2,0.5c0.7-0.4,1-1.3,0.5-2l-2.5-4.3
	c-0.4-0.7-1.3-1-2-0.5c-0.7,0.4-1,1.3-0.5,2L13.7,9.5z M23.5,8C24.3,8,25,7.3,25,6.5v-5C25,0.7,24.3,0,23.5,0C22.7,0,22,0.7,22,1.5
	v5C22,7.3,22.7,8,23.5,8z M3.7,13.8L8,16.3c0.7,0.4,1.6,0.2,2-0.5c0.4-0.7,0.2-1.6-0.5-2l-4.3-2.5c-0.7-0.4-1.6-0.2-2,0.5
	C2.7,12.5,3,13.4,3.7,13.8z M54,32c0-6.6-5.4-12-12-12c-6.6,0-12,5.4-12,12c0,0.1,0,0.2,0,0.3c-0.6-0.2-1.3-0.3-2-0.3
	c-4.4,0-8,3.6-8,8c0,0.8,0.1,1.5,0.3,2.2C19.9,42.1,19.5,42,19,42c-2.8,0-5,2.2-5,5s2.2,5,5,5h35c5.5,0,10-4.5,10-10S59.5,32,54,32z
	 M54,49H19c-1.2,0-2.2-0.8-2.2-2s1-2.2,2.2-2.2c0.2,0,0.4,0,0.6,0.1c0.2,0.1,0.5,0.1,0.7,0.1c0.7,0,1.4-0.3,2-0.8
	c0.7-0.7,1-1.7,0.7-2.7c-0.2-0.6-0.2-1-0.2-1.4c0-2.9,2.4-5.2,5.2-5.2c0.4,0,0.8,0.1,1.3,0.2C29.6,35,29.8,35,30,35
	c0.6,0,1.2-0.2,1.7-0.6c0.7-0.5,1.1-1.4,1-2.3c0-0.1,0-0.1,0-0.2c0-5.1,4.2-9.2,9.2-9.2c5.1,0,9.2,4.1,9.2,9.2
	c0,1.5,1.2,2.8,2.8,2.8c4,0,7.2,3.3,7.2,7.2S58,49,54,49z M8,30.7l-4.3,2.5c-0.7,0.4-1,1.3-0.5,2c0.4,0.7,1.3,1,2,0.5l4.3-2.5
	c0.7-0.4,1-1.3,0.5-2C9.7,30.5,8.7,30.3,8,30.7z M8,23.5C8,22.7,7.3,22,6.5,22h-5C0.7,22,0,22.7,0,23.5S0.7,25,1.5,25h5
	C7.3,25,8,24.3,8,23.5z"/>
</svg>
