<?xml version="1.0" encoding="utf-8"?>
<!-- Generator: Adobe Illustrator 18.1.0, SVG Export Plug-In . SVG Version: 6.00 Build 0)  -->
<svg version="1.1" id="Layer_1" xmlns="http://www.w3.org/2000/svg" xmlns:xlink="http://www.w3.org/1999/xlink" x="0px" y="0px"
	 viewBox="0 0 64 65.1" enable-background="new 0 0 64 65.1" xml:space="preserve">
<path fill="#1E2832" d="M3.2,11.8l4.3,2.5c0.7,0.4,1.6,0.2,2-0.5c0.4-0.7,0.2-1.6-0.5-2L4.7,9.2C3.9,8.8,3,9,2.6,9.7
	C2.2,10.5,2.4,11.4,3.2,11.8z M11.7,9c0.4,0.7,1.3,1,2,0.5c0.7-0.4,1-1.3,0.5-2l-2.5-4.3c-0.4-0.7-1.3-1-2-0.5C9,3,8.8,3.9,9.2,4.7
	L11.7,9z M25.2,9.5c0.7,0.4,1.6,0.2,2-0.5l2.5-4.3c0.4-0.7,0.2-1.6-0.5-2c-0.7-0.4-1.6-0.2-2,0.5l-2.5,4.3
	C24.3,8.2,24.5,9.1,25.2,9.5z M19.5,12.8c1.4,0,2.7,0.4,3.9,1.2c0.6,0.4,1.5,0.3,1.9-0.3c0.4-0.6,0.3-1.5-0.3-1.9
	c-1.6-1.1-3.5-1.7-5.5-1.7c-5.2,0-9.5,4.3-9.5,9.5c0,1.1,0.2,2.1,0.5,3.1c0.2,0.6,0.7,0.9,1.3,0.9c0.2,0,0.3,0,0.5-0.1
	c0.7-0.2,1.1-1,0.8-1.8c-0.3-0.7-0.4-1.5-0.4-2.2C12.8,15.8,15.8,12.8,19.5,12.8z M19.5,8C20.3,8,21,7.3,21,6.5v-5
	C21,0.7,20.3,0,19.5,0C18.7,0,18,0.7,18,1.5v5C18,7.3,18.7,8,19.5,8z M8,19.5C8,18.7,7.3,18,6.5,18h-5C0.7,18,0,18.7,0,19.5
	S0.7,21,1.5,21h5C7.3,21,8,20.3,8,19.5z M52.1,22.4c0,0-0.2,0-0.2,0C51.1,15.4,45.2,10,38,10c-7.2,0-13.2,5.4-13.9,12.6v0
	C23,22.2,22,22,21,22c-5,0-9,4-9,9c0,1,0.2,2,0.6,3.1l-0.2,0c-0.1,0-0.2,0-0.3,0c-3.3,0-6,2.7-6,6s2.7,6,6,6h6.7
	c0.8,0,1.4-0.7,1.4-1.5S19.4,43,18.7,43H12c-1.8,0-3.2-1.2-3.2-3s1.5-3.2,3.2-3.3c0,0,0.1,0,0.1,0l2.5,0.2c0.5,0,0.9-0.2,1.2-0.5
	c0.3-0.4,0.4-0.9,0.2-1.3l-0.7-2c-0.3-0.7-0.4-1.4-0.4-2.1c0-3.4,2.8-6.2,6.2-6.2c0.7,0,1.4,0.1,2.1,0.4l1.7,0.6
	c0.4,0.1,0.8,0.1,1.2-0.1c0.4-0.2,0.6-0.6,0.6-1l0.2-1.8c0.6-5.8,5.4-10.1,11.2-10.1c5.7,0,10.5,4.3,11.2,10l0.1,1.3
	c0.1,0.7,0.7,1.3,1.4,1.2l1.4,0c5,0,9.1,4,9.1,9c0,5-4.1,8.8-9,8.8H48c-0.8,0-1.4,0.7-1.4,1.5S47.2,46,48,46h4.2
	C58.7,46,64,40.7,64,34.2C64,27.7,58.7,22.4,52.1,22.4z M9.5,25.2c-0.4-0.7-1.3-1-2-0.5l-4.3,2.5c-0.7,0.4-1,1.3-0.5,2
	c0.4,0.7,1.3,1,2,0.5L9,27.3C9.7,26.9,10,26,9.5,25.2z"/>
<path fill="#1E2832" d="M25.1,59.8c-0.7,2.1,0.1,4.4,2.1,5.1c2,0.8,4.3-0.4,5.1-2.5c1.2-3.3,0.2-10.8,0.2-10.8S26.5,56,25.1,59.8z"
	/>
<path fill="#1E2832" d="M28.3,48.4c1.2-3.3,0.2-10.8,0.2-10.8s-6.1,4.4-7.4,8.1c-0.7,2.1,0.1,4.4,2.1,5.1
	C25.3,51.7,27.6,50.5,28.3,48.4z"/>
<path fill="#1E2832" d="M37.1,51.5c-0.7,2.1,0.1,4.4,2.1,5.1c2,0.8,4.3-0.4,5.1-2.5c1.2-3.3,0.2-10.8,0.2-10.8S38.5,47.8,37.1,51.5z
	"/>
</svg>
