<?xml version="1.0" encoding="utf-8"?>
<!-- Generator: Adobe Illustrator 18.1.0, SVG Export Plug-In . SVG Version: 6.00 Build 0)  -->
<svg version="1.1" id="Layer_1" xmlns="http://www.w3.org/2000/svg" xmlns:xlink="http://www.w3.org/1999/xlink" x="0px" y="0px"
	 viewBox="0 0 64 36" enable-background="new 0 0 64 36" xml:space="preserve">
<path fill="#1E2832" d="M52.5,10c0.8,0,1.5-0.7,1.5-1.5S53.3,7,52.5,7h-19C32.7,7,32,7.7,32,8.5s0.7,1.5,1.5,1.5H52.5z M11.5,21
	c-0.8,0-1.5,0.7-1.5,1.5s0.7,1.5,1.5,1.5h11c0.8,0,1.5-0.7,1.5-1.5S23.3,21,22.5,21H11.5z M47.5,3h15C63.3,3,64,2.3,64,1.5
	S63.3,0,62.5,0h-15C46.7,0,46,0.7,46,1.5S46.7,3,47.5,3z M60,15.5c0-0.8-0.7-1.5-1.5-1.5h-51C6.7,14,6,14.7,6,15.5S6.7,17,7.5,17h51
	C59.3,17,60,16.3,60,15.5z M11.5,3h31C43.3,3,44,2.3,44,1.5S43.3,0,42.5,0h-31C10.7,0,10,0.7,10,1.5S10.7,3,11.5,3z M1.5,10h27
	c0.8,0,1.5-0.7,1.5-1.5S29.3,7,28.5,7h-27C0.7,7,0,7.7,0,8.5S0.7,10,1.5,10z M58.5,27h-51C6.7,27,6,27.7,6,28.5S6.7,30,7.5,30h51
	c0.8,0,1.5-0.7,1.5-1.5S59.3,27,58.5,27z M62.5,21h-35c-0.8,0-1.5,0.7-1.5,1.5s0.7,1.5,1.5,1.5h35c0.8,0,1.5-0.7,1.5-1.5
	S63.3,21,62.5,21z M52.5,33h-11c-0.8,0-1.5,0.7-1.5,1.5s0.7,1.5,1.5,1.5h11c0.8,0,1.5-0.7,1.5-1.5S53.3,33,52.5,33z M36.5,33h-35
	C0.7,33,0,33.7,0,34.5S0.7,36,1.5,36h35c0.8,0,1.5-0.7,1.5-1.5S37.3,33,36.5,33z"/>
</svg>
