<?xml version="1.0" encoding="utf-8"?>
<!-- Generator: Adobe Illustrator 18.1.0, SVG Export Plug-In . SVG Version: 6.00 Build 0)  -->
<svg version="1.1" id="Layer_1" xmlns="http://www.w3.org/2000/svg" xmlns:xlink="http://www.w3.org/1999/xlink" x="0px" y="0px"
	 viewBox="0 0 52 52" enable-background="new 0 0 52 52" xml:space="preserve">
<path fill="#1E2832" d="M26.9,52C12.1,52,0,39.9,0,25.1C0,14,6.7,4.2,17,0.1c0.8-0.3,1.8-0.1,2.4,0.6c0.6,0.7,0.6,1.7,0.1,2.4
	C17.2,6.6,16,10.6,16,14.8C16,26.5,25.5,36,37.2,36c4.1,0,8.1-1.2,11.6-3.4c0.7-0.5,1.8-0.4,2.4,0.1c0.7,0.6,0.9,1.5,0.6,2.4
	C47.8,45.3,38,52,26.9,52z M16.1,3.6C7.9,7.6,2.8,15.9,2.8,25.1c0,13.3,10.8,24.1,24.1,24.1c9.3,0,17.5-5.2,21.6-13.3
	c-3.4,1.8-7.3,2.8-11.2,2.8C24,38.7,13.3,28,13.3,14.8C13.3,10.8,14.2,7,16.1,3.6z"/>
</svg>
