<?xml version="1.0" encoding="utf-8"?>
<!-- Generator: Adobe Illustrator 18.1.0, SVG Export Plug-In . SVG Version: 6.00 Build 0)  -->
<svg version="1.1" id="Layer_1" xmlns="http://www.w3.org/2000/svg" xmlns:xlink="http://www.w3.org/1999/xlink" x="0px" y="0px"
	 viewBox="0 0 64 50" enable-background="new 0 0 64 50" xml:space="preserve">
<path fill="#1E2832" d="M40,30c0-6.6-5.4-12-12-12c-6.6,0-12,5.4-12,12c0,0.1,0,0.2,0,0.3c-0.6-0.2-1.3-0.3-2-0.3c-4.4,0-8,3.6-8,8
	c0,0.8,0.1,1.5,0.3,2.2C5.9,40.1,5.5,40,5,40c-2.8,0-5,2.2-5,5s2.2,5,5,5h35c5.5,0,10-4.5,10-10S45.5,30,40,30z M40,47H5
	c-1.2,0-2.2-0.8-2.2-2s1-2.2,2.2-2.2c0.2,0,0.4,0,0.6,0.1c0.2,0.1,0.5,0.1,0.7,0.1c0.7,0,1.4-0.3,2-0.8c0.7-0.7,1-1.7,0.7-2.7
	c-0.2-0.6-0.2-1-0.2-1.4c0-2.9,2.4-5.2,5.2-5.2c0.4,0,0.8,0.1,1.3,0.2C15.6,33,15.8,33,16,33c0.6,0,1.2-0.2,1.7-0.6
	c0.7-0.5,1.1-1.4,1-2.3c0-0.1,0-0.1,0-0.2c0-5.1,4.2-9.2,9.2-9.2c5.1,0,9.2,4.1,9.2,9.2c0,1.5,1.2,2.8,2.8,2.8c4,0,7.2,3.3,7.2,7.2
	S44,47,40,47z M63.4,23c-0.6-0.6-1.5-0.8-2.2-0.4c-1.9,0.9-4,1.3-6.2,1.3c-8.3,0-15-6.7-15-15c0-2.1,0.4-4.2,1.3-6.2
	C41.7,2,41.6,1.1,41,0.6c-0.6-0.6-1.5-0.7-2.2-0.4C33.2,2.8,29.3,8,28.3,14.1c-0.1,0.7,0.4,1.5,1.1,1.6c0.7,0.1,1.4-0.4,1.6-1.1
	c0.8-4.5,3.4-8.5,7.2-10.9c-0.5,1.7-0.8,3.5-0.8,5.3c0,9.8,7.9,17.7,17.7,17.7c1.8,0,3.6-0.3,5.3-0.8c-2,3.1-5,5.4-8.5,6.6
	c-0.7,0.2-1.1,1-0.9,1.7c0.2,0.6,0.7,0.9,1.3,0.9c0.1,0,0.3,0,0.4-0.1c4.9-1.6,8.9-5.2,11.1-9.8C64.2,24.5,64,23.6,63.4,23z"/>
</svg>
