<?xml version="1.0" encoding="utf-8"?>
<!-- Generator: Adobe Illustrator 18.1.0, SVG Export Plug-In . SVG Version: 6.00 Build 0)  -->
<svg version="1.1" id="Layer_1" xmlns="http://www.w3.org/2000/svg" xmlns:xlink="http://www.w3.org/1999/xlink" x="0px" y="0px"
	 viewBox="0 0 64 40" enable-background="new 0 0 64 40" xml:space="preserve">
<path fill="#1E2832" d="M51,14c-0.4,0-0.8,0-1.1,0.1C48.9,6.1,42.2,0,34,0c-8.2,0-15,6.2-15.9,14.2C17.4,14.1,16.7,14,16,14
	c-5.5,0-10,4.5-10,10c0,0.7,0.1,1.4,0.2,2.1C2.7,26.5,0,29.4,0,33c0,3.9,3.1,7,7,7h44c7.2,0,13-5.8,13-13S58.2,14,51,14z M51,37H7
	c-2.3,0.2-4.2-1.7-4.2-4c0-2.1,1.6-3.9,3.8-4.2c0.8-0.1,1.5-0.5,1.9-1.1c0.5-0.6,0.6-1.4,0.5-2.2c-0.1-0.5-0.2-1-0.2-1.5
	c0-4,3.3-7.2,7.2-7.2c0.5,0,1,0.1,1.5,0.2c0.2,0,0.4,0.1,0.6,0.1c0.6,0,1.1-0.2,1.6-0.5c0.6-0.5,1-1.2,1.1-1.9
	C21.6,7.8,27.2,2.8,34,2.8c6.7,0,12.3,5,13.1,11.6c0.2,1.4,1.3,2.4,2.7,2.4c0.1,0,0.2,0,0.2,0c0.3,0,0.6,0,0.9,0
	c5.7,0,10.2,4.6,10.2,10.2S56.7,37.2,51,37z"/>
</svg>
