<?xml version="1.0" encoding="utf-8"?>
<!-- Generator: Adobe Illustrator 18.1.0, SVG Export Plug-In . SVG Version: 6.00 Build 0)  -->
<svg version="1.1" id="Layer_1" xmlns="http://www.w3.org/2000/svg" xmlns:xlink="http://www.w3.org/1999/xlink" x="0px" y="0px"
	 viewBox="0 0 64 36" enable-background="new 0 0 64 36" xml:space="preserve">
<path fill="#1E2832" d="M52.2,12.4c-0.1,0-0.2,0-0.3,0C51.1,5.5,45.2,0,38,0c-4.7,0-8.9,2.4-11.5,6c-0.6-0.7-1.2-1.3-1.8-1.9
	C23.2,2.8,21.2,2,19,2c-4.6,0-8.4,3.5-8.9,8c0,0-0.1,0-0.1,0c-3.3,0-6,2.7-6,6c0,0,0,0.1,0,0.1c-2.3,0.5-4,2.5-4,4.9
	c0,2.6,2,4.7,4.5,5c0.4,0,1.5,0,3,0C6.6,27,6,28.4,6,30c0,3.3,2.7,6,6,6h40.2C58.7,36,64,30.7,64,24.2C64,17.7,58.7,12.4,52.2,12.4z
	 M4.7,23c-1.1-0.1-2-0.9-2-2c0-1.1,0.8-2,1.8-2.2c1.3-0.3,2.2-1.4,2.2-2.7c0-0.1,0-0.1,0-0.2c0.1-1.7,1.4-3.1,3.1-3.1
	c0.1,0,0.1,0,0.2,0c1.4,0,2.6-1.1,2.7-2.4c0.4-3.2,3-5.6,6.2-5.6c1.5,0,2.8,0.5,4,1.4c0.7,0.7,1.4,1.5,2.2,2.4c-0.5,1.3-0.9,2.6-1,4
	c-1-0.4-2-0.6-3.1-0.6c-5,0-9,4-9,9c0,0.7,0.1,1.4,0.3,2C8.4,23,6.8,23,4.7,23z M52.2,33H12c-1.8,0.2-3.2-1.2-3.2-3
	c0-1.8,1.4-3.2,3.2-3.2l0.1,0c0.1,0,0.2,0,0.3,0c0.1,0,0.2,0,0.3,0c0.8,0,1.6-0.4,2.2-1.1c0.6-0.7,0.7-1.7,0.4-2.6
	c-0.3-0.8-0.4-1.4-0.4-2.1c0-3.4,2.8-6.2,6.2-6.2c0.7,0,1.4,0.1,2.1,0.4c0.3,0.1,0.6,0.2,0.9,0.2c0.5,0,1-0.1,1.5-0.4
	c0.7-0.5,1.2-1.2,1.3-2.1C27.4,7.1,32.2,2.8,38,2.8c5.7,0,10.5,4.3,11.2,10c0.2,1.4,1.3,2.4,2.7,2.4c0,0,0.1,0,0.1,0
	c0.1,0,0.1,0,0.2,0c5,0,9,4.1,9,9C61.2,29.2,57.2,33.2,52.2,33z"/>
</svg>
