<?xml version="1.0" encoding="utf-8"?>
<!-- Generator: Adobe Illustrator 18.1.0, SVG Export Plug-In . SVG Version: 6.00 Build 0)  -->
<svg version="1.1" id="Layer_1" xmlns="http://www.w3.org/2000/svg" xmlns:xlink="http://www.w3.org/1999/xlink" x="0px" y="0px"
	 viewBox="0 0 64 64.5" enable-background="new 0 0 64 64.5" xml:space="preserve">
<path fill="#1E2832" d="M52.1,22.4c0,0-0.2,0-0.2,0C51.1,15.3,45.1,10,38,10c-7.2,0-13.2,5.4-13.9,12.6v0C23,22.2,22,22,21,22
	c-5,0-9,4-9,9c0,1,0.2,2,0.6,3.1l-0.2,0c-0.1,0-0.2,0-0.3,0c-3.3,0-6,2.7-6,6c0,3.3,2.7,6,6,6h6.5c0.8,0,1.4-0.7,1.4-1.5
	c0-0.8-0.6-1.5-1.4-1.5H12c-1.8,0-3.2-1.2-3.2-3s1.5-3.2,3.2-3.3c0,0,0.1,0,0.1,0l2.5,0.2c0.5,0,0.9-0.2,1.2-0.5
	c0.3-0.4,0.4-0.9,0.2-1.3l-0.7-2c-0.3-0.7-0.4-1.4-0.4-2.1c0-3.4,2.8-6.2,6.3-6.2c0.7,0,1.4,0.1,2.1,0.4l1.7,0.6
	c0.4,0.1,0.8,0.1,1.2-0.1c0.4-0.2,0.6-0.6,0.6-1l0.2-1.8c0.6-5.8,5.4-10.1,11.2-10.1c5.7,0,10.5,4.3,11.2,10l0.1,1.3
	c0.1,0.7,0.7,1.3,1.4,1.2l1.4,0c5,0,9.1,4,9.1,9c0,5-4.1,8.8-9,8.8H48c-0.8,0-1.4,0.7-1.4,1.5c0,0.8,0.6,1.5,1.4,1.5h4.2
	C58.7,46,64,40.7,64,34.2C64,27.7,58.7,22.4,52.1,22.4z M9.2,27.6c0.6,0,1.2-0.4,1.3-1.1c0.2-0.7-0.3-1.5-1-1.6
	c-2.3-0.5-4.4-1.7-6.1-3.3c0.7,0.1,1.4,0.1,2.1,0.1c9,0,16.3-7.3,16.3-16.3c0-0.7,0-1.4-0.1-2.1c1.9,2,3.2,4.5,3.5,7.3
	c0.1,0.8,0.8,1.3,1.5,1.2c0.8-0.1,1.3-0.8,1.2-1.5c-0.5-3.8-2.3-7.2-5.2-9.7c-0.8-0.7-1.9-0.8-2.8-0.3c-0.9,0.5-1.4,1.5-1.2,2.5
	C18.9,3.7,19,4.6,19,5.4C19,12.9,12.9,19,5.4,19c-0.9,0-1.7-0.1-2.6-0.2c-1-0.2-2,0.3-2.6,1.2c-0.5,0.9-0.4,2,0.3,2.8
	c2.2,2.5,5,4.2,8.3,4.9C9,27.6,9.1,27.6,9.2,27.6z"/>
<path fill="#1E2832" d="M25.2,59.1c-0.7,2.1,0.1,4.4,2.1,5.1c2,0.8,4.3-0.4,5.1-2.5c1.2-3.3,0.2-10.8,0.2-10.8S26.5,55.4,25.2,59.1z
	"/>
<path fill="#1E2832" d="M28.4,47.7c1.2-3.3,0.2-10.8,0.2-10.8s-6.1,4.4-7.4,8.1c-0.7,2.1,0.1,4.4,2.1,5.1
	C25.3,51,27.6,49.8,28.4,47.7z"/>
<path fill="#1E2832" d="M37.2,50.9c-0.7,2.1,0.1,4.4,2.1,5.1c2,0.8,4.3-0.4,5.1-2.5c1.2-3.3,0.2-10.8,0.2-10.8S38.5,47.1,37.2,50.9z
	"/>
</svg>
