<?xml version="1.0" encoding="utf-8"?>
<!-- Generator: Adobe Illustrator 18.1.0, SVG Export Plug-In . SVG Version: 6.00 Build 0)  -->
<svg version="1.1" id="Layer_1" xmlns="http://www.w3.org/2000/svg" xmlns:xlink="http://www.w3.org/1999/xlink" x="0px" y="0px"
	 viewBox="0 0 64 60" enable-background="new 0 0 64 60" xml:space="preserve">
<path fill="#1E2832" d="M22.3,54.7c-0.7,2.1,0.1,4.4,2.1,5.1c2,0.8,4.3-0.4,5.1-2.5c1.2-3.3,0.2-10.8,0.2-10.8S23.6,50.9,22.3,54.7z
	 M25.5,43.3c1.2-3.3,0.2-10.8,0.2-10.8s-6.1,4.4-7.4,8.1c-0.7,2.1,0.1,4.4,2.1,5.1C22.4,46.5,24.7,45.3,25.5,43.3z M51,14
	c-0.4,0-0.8,0-1.1,0.1C48.9,6,42.1,0,34,0c-8.2,0-15,6.1-15.9,14.2v0C11.7,12.8,6,17.8,6,24c0,0.7,0.1,1.4,0.2,2.1
	C2.7,26.5,0,29.5,0,33c0,3.9,3.1,7,7,7h7c0.8,0,1.4-0.7,1.4-1.5c0-0.8-0.6-1.5-1.4-1.5H7c-2.3,0.2-4.2-1.7-4.2-4
	c0-2.1,1.6-3.9,3.8-4.2l3-0.3l-0.6-3c-0.1-0.5-0.2-1-0.2-1.5c0-4,3.3-7.2,7.2-7.2c0.5,0,1,0.1,1.5,0.2l3,0.6l0.3-3
	C21.6,7.8,27.2,2.8,34,2.8c6.7,0,12.3,5,13.1,11.6l0.3,2.6l2.6-0.2c0.3,0,0.6,0,0.9,0c5.7,0,10.2,4.6,10.2,10.2S56.7,37.2,51,37h-5
	c-0.7,0-1.4,0.7-1.4,1.5c0,0.8,0.6,1.5,1.4,1.5h5c7.2,0,13-5.8,13-13S58.2,14,51,14z M34.3,46.7c-0.7,2.1,0.1,4.4,2.1,5.1
	c2,0.8,4.3-0.4,5.1-2.5c1.2-3.3,0.2-10.8,0.2-10.8S35.6,42.9,34.3,46.7z"/>
</svg>
