<?xml version="1.0" encoding="utf-8"?>
<!-- Generator: Adobe Illustrator 18.1.0, SVG Export Plug-In . SVG Version: 6.00 Build 0)  -->
<svg version="1.1" id="Layer_1" xmlns="http://www.w3.org/2000/svg" xmlns:xlink="http://www.w3.org/1999/xlink" x="0px" y="0px"
	 viewBox="0 0 64 60" enable-background="new 0 0 64 60" xml:space="preserve">
<path fill="#1E2832" d="M31.9,48c-0.2-0.4-0.7-0.6-1.1-0.5l-3.7,1L26,44.7c-0.1-0.4-0.5-0.7-1-0.7s-0.8,0.3-1,0.7l-1.1,3.7l-3.8-0.9
	c-0.4-0.1-0.8,0.1-1.1,0.5c-0.2,0.4-0.2,0.9,0.1,1.2l2.6,2.8l-2.6,2.8c-0.3,0.3-0.3,0.8-0.1,1.2s0.7,0.6,1.1,0.5l3.9-0.9l1,3.7
	c0.1,0.4,0.5,0.7,1,0.7c0.5,0,0.9-0.3,1-0.7l1-3.8l3.8,1c0.4,0.1,0.9-0.1,1.1-0.5c0.2-0.4,0.2-0.9-0.1-1.2L29,52l2.8-2.8
	C32.1,48.9,32.2,48.4,31.9,48z M20,43.3c0.1,0.4,0.5,0.7,1,0.7c0.5,0,0.9-0.3,1-0.7l1-3.8l3.8,1c0.4,0.1,0.9-0.1,1.1-0.5
	c0.2-0.4,0.2-0.9-0.1-1.2L25,36l2.8-2.8c0.3-0.3,0.4-0.8,0.1-1.2c-0.2-0.4-0.7-0.6-1.1-0.5l-3.7,1L22,28.7c-0.1-0.4-0.5-0.7-1-0.7
	c-0.4,0-0.8,0.3-1,0.7l-1.1,3.7l-3.8-0.9c-0.4-0.1-0.8,0.1-1.1,0.5c-0.2,0.4-0.2,0.9,0.1,1.2l2.6,2.8l-2.6,2.8
	c-0.3,0.3-0.3,0.8-0.1,1.2s0.7,0.6,1.1,0.5l3.9-0.9L20,43.3z M45.9,36c-0.2-0.4-0.7-0.6-1.1-0.5l-3.7,1L40,32.7
	c-0.1-0.4-0.5-0.7-1-0.7s-0.8,0.3-1,0.7l-1.1,3.7l-3.8-0.9c-0.4-0.1-0.8,0.1-1.1,0.5c-0.2,0.4-0.2,0.9,0.1,1.2l2.6,2.8l-2.6,2.8
	c-0.3,0.3-0.3,0.8-0.1,1.2c0.2,0.4,0.7,0.6,1.1,0.5l3.9-0.9l1,3.7c0.1,0.4,0.5,0.7,1,0.7c0.5,0,0.9-0.3,1-0.7l1-3.8l3.8,1
	c0.4,0.1,0.9-0.1,1.1-0.5c0.2-0.4,0.2-0.9-0.1-1.2L43,40l2.8-2.8C46.1,36.9,46.2,36.4,45.9,36z M51,14c-0.4,0-0.8,0-1.1,0.1
	C48.9,6,42.1,0,34,0c-8.2,0-15,6.1-15.9,14.2v0C11.7,12.8,6,17.8,6,24c0,0.7,0.1,1.4,0.2,2.1C2.7,26.5,0,29.5,0,33c0,3.9,3.1,7,7,7
	h3c0.8,0,1.4-0.7,1.4-1.5c0-0.8-0.6-1.5-1.4-1.5H7c-2.3,0.2-4.2-1.7-4.2-4c0-2.1,1.6-3.9,3.8-4.2l3-0.3l-0.6-3
	c-0.1-0.5-0.2-1-0.2-1.5c0-4,3.3-7.2,7.2-7.2c0.5,0,1,0.1,1.5,0.2l3,0.6l0.3-3C21.6,7.8,27.2,2.8,34,2.8c6.7,0,12.3,5,13.1,11.6
	l0.3,2.6l2.6-0.2c0.3,0,0.6,0,0.9,0c5.7,0,10.2,4.6,10.2,10.2S56.7,37.2,51,37h-1c-0.8,0-1.4,0.7-1.4,1.5c0,0.8,0.6,1.5,1.4,1.5h1
	c7.2,0,13-5.8,13-13S58.2,14,51,14z"/>
</svg>
